<svg id="svg" version="1.1" xmlns="http://www.w3.org/2000/svg" xmlns:xlink="http://www.w3.org/1999/xlink" width="400" height="400" viewBox="0, 0, 400,400"><g id="svgg"><path id="path0" d="M197.200 117.551 C 193.967 118.899,108.415 169.728,107.830 170.648 C 107.497 171.172,107.219 196.530,107.212 227.000 L 107.200 282.400 126.800 282.400 L 146.400 282.400 146.400 266.773 L 146.400 251.146 155.000 251.373 L 163.600 251.600 163.844 255.400 L 164.088 259.200 158.844 259.200 L 153.600 259.200 153.600 261.600 C 153.600 263.911,153.733 264.000,157.200 264.000 C 160.187 264.000,160.800 264.256,160.800 265.500 C 160.800 266.325,161.025 268.125,161.300 269.500 C 161.795 271.977,161.769 272.000,158.500 272.000 L 155.200 272.000 155.200 277.200 L 155.200 282.400 160.400 282.400 L 165.600 282.400 165.600 270.800 L 165.600 259.200 179.500 259.200 L 193.400 259.200 193.900 261.700 C 194.175 263.075,194.400 268.295,194.400 273.300 C 194.400 278.833,194.714 282.400,195.200 282.400 C 195.697 282.400,196.000 278.000,196.000 270.800 L 196.000 259.200 209.900 259.200 L 223.800 259.200 224.300 261.700 C 224.575 263.075,224.800 268.295,224.800 273.300 C 224.800 278.833,225.114 282.400,225.600 282.400 C 226.087 282.400,226.400 278.800,226.400 273.200 L 226.400 264.000 235.571 264.000 L 244.742 264.000 244.971 256.200 L 245.200 248.400 250.000 248.400 L 254.800 248.400 254.800 265.400 L 254.800 282.401 273.400 282.400 L 292.000 282.400 292.000 226.390 L 292.000 170.380 287.638 167.590 C 282.204 164.113,282.400 164.083,282.400 168.400 L 282.400 172.000 278.075 172.000 L 273.750 172.000 273.190 167.925 C 272.569 163.415,272.977 162.645,276.191 162.262 C 277.956 162.051,271.116 157.708,240.980 139.905 C 204.156 118.152,200.381 116.224,197.200 117.551 M150.400 166.800 C 150.400 169.220,150.490 171.470,150.600 171.800 C 150.710 172.130,149.720 172.473,148.400 172.563 C 147.080 172.653,142.130 172.958,137.400 173.240 C 128.881 173.749,128.800 173.773,128.800 175.767 L 128.800 177.780 140.000 177.200 L 151.200 176.620 151.205 180.910 C 151.207 183.270,151.436 188.111,151.713 191.670 L 152.217 198.139 136.375 198.670 C 127.662 198.962,120.464 199.110,120.380 199.000 C 120.295 198.890,120.007 197.133,119.741 195.095 L 119.257 191.391 130.828 190.812 L 142.400 190.234 142.400 188.192 L 142.400 186.151 130.915 186.647 L 119.430 187.143 118.915 181.051 C 118.407 175.038,118.211 164.894,118.600 164.700 C 118.839 164.581,144.075 162.700,147.800 162.523 L 150.400 162.400 150.400 166.800 M160.800 171.200 L 160.800 178.400 169.224 178.400 L 177.648 178.400 177.424 188.600 L 177.200 198.800 172.200 199.038 L 167.200 199.276 167.200 193.238 L 167.200 187.200 164.000 187.200 L 160.800 187.200 160.800 192.800 L 160.800 198.400 157.200 198.400 L 153.600 198.400 153.600 181.200 L 153.600 164.000 157.200 164.000 L 160.800 164.000 160.800 171.200 M207.428 184.556 C 207.688 191.902,207.722 198.202,207.504 198.556 C 207.285 198.910,200.647 199.200,192.753 199.200 L 178.400 199.200 178.400 185.733 C 178.400 178.327,178.640 172.027,178.933 171.733 C 179.227 171.440,185.651 171.200,193.211 171.200 L 206.954 171.200 207.428 184.556 M239.395 184.600 C 239.230 191.090,238.949 196.850,238.772 197.400 C 238.538 198.127,235.820 198.400,228.825 198.400 L 219.200 198.400 219.200 204.400 L 219.200 210.400 213.879 210.400 L 208.559 210.400 209.075 202.600 C 209.359 198.310,209.594 189.850,209.596 183.800 L 209.600 172.800 224.648 172.800 L 239.696 172.800 239.395 184.600 M271.395 184.600 C 271.230 191.090,270.949 196.850,270.772 197.400 C 270.538 198.127,267.820 198.400,260.825 198.400 L 251.200 198.400 251.200 204.400 L 251.200 210.400 245.879 210.400 L 240.559 210.400 241.075 202.600 C 241.359 198.310,241.594 189.850,241.596 183.800 L 241.600 172.800 256.648 172.800 L 271.696 172.800 271.395 184.600 M281.896 176.200 C 282.161 177.190,282.383 182.590,282.389 188.200 L 282.400 198.400 277.644 198.400 L 272.888 198.400 273.363 187.000 C 273.878 174.675,273.977 174.431,278.507 174.412 C 280.850 174.402,281.507 174.749,281.896 176.200 M188.800 184.400 L 188.800 189.600 192.800 189.600 L 196.800 189.600 196.800 184.400 L 196.800 179.200 192.800 179.200 L 188.800 179.200 188.800 184.400 M219.200 183.500 C 219.200 184.545,218.975 186.525,218.700 187.900 L 218.200 190.400 223.500 190.400 L 228.800 190.400 228.800 186.000 L 228.800 181.600 224.000 181.600 C 219.481 181.600,219.200 181.711,219.200 183.500 M251.200 183.500 C 251.200 184.545,250.975 186.525,250.700 187.900 L 250.200 190.400 255.500 190.400 L 260.800 190.400 260.800 186.000 L 260.800 181.600 256.000 181.600 C 251.481 181.600,251.200 181.711,251.200 183.500 M201.114 215.665 C 201.381 216.361,201.600 222.661,201.600 229.665 L 201.600 242.400 195.600 242.400 L 189.600 242.400 189.600 232.909 L 189.600 223.417 185.888 222.909 C 183.847 222.629,181.777 222.399,181.288 222.398 C 180.672 222.397,180.476 225.377,180.649 232.121 C 180.937 243.383,181.069 243.170,173.800 243.188 L 168.800 243.200 168.800 229.223 L 168.800 215.245 179.800 214.998 C 185.850 214.862,193.011 214.672,195.714 214.575 C 199.569 214.438,200.734 214.673,201.114 215.665 M220.155 215.989 L 232.709 216.000 232.236 234.600 C 231.926 246.750,231.457 253.404,230.881 253.788 C 230.396 254.111,224.330 254.381,217.400 254.388 L 204.800 254.400 204.800 249.600 L 204.800 244.800 210.314 244.800 C 214.478 244.800,215.942 245.094,216.289 246.000 C 217.059 248.006,219.953 247.427,220.842 245.089 C 221.967 242.130,221.707 242.032,211.935 241.729 L 203.200 241.458 203.200 228.863 C 203.200 215.642,203.367 214.841,205.980 215.543 C 206.871 215.782,213.250 215.983,220.155 215.989 M214.400 228.800 L 214.400 234.400 218.000 234.400 L 221.600 234.400 221.600 228.800 L 221.600 223.200 218.000 223.200 L 214.400 223.200 214.400 228.800 M175.209 269.400 C 175.237 276.485,175.903 277.600,180.105 277.600 L 184.000 277.600 184.000 272.400 L 184.000 267.200 179.600 267.200 C 175.331 267.200,175.200 267.266,175.209 269.400 M205.609 269.400 C 205.637 276.485,206.303 277.600,210.505 277.600 L 214.400 277.600 214.400 272.400 L 214.400 267.200 210.000 267.200 C 205.731 267.200,205.600 267.266,205.609 269.400 M236.000 275.600 L 236.000 279.200 240.400 279.200 L 244.800 279.200 244.800 275.600 L 244.800 272.000 240.400 272.000 L 236.000 272.000 236.000 275.600 " stroke="none" fill="#000000" fill-rule="evenodd"></path></g></svg>